<svg width="17" height="17" viewBox="0 0 17 17" fill="none" xmlns="http://www.w3.org/2000/svg">
<g clip-path="url(#clip0_92_272)">
<path d="M5.13036 0.587695L4.85714 1.0625H1.21429C0.542634 1.0625 0 1.5373 0 2.125C0 2.7127 0.542634 3.1875 1.21429 3.1875H15.7857C16.4574 3.1875 17 2.7127 17 2.125C17 1.5373 16.4574 1.0625 15.7857 1.0625H12.1429L11.8696 0.587695C11.6647 0.225781 11.2435 0 10.7844 0H6.21563C5.75647 0 5.33527 0.225781 5.13036 0.587695ZM15.7857 4.25H1.21429L2.01875 15.5059C2.07946 16.3459 2.87634 17 3.83638 17H13.1636C14.1237 17 14.9205 16.3459 14.9812 15.5059L15.7857 4.25Z" fill="white"/>
</g>
<defs>
<clipPath id="clip0_92_272">
<rect width="17" height="17" fill="white"/>
</clipPath>
</defs>
</svg>
