<svg width="124" height="101" viewBox="0 0 124 101" fill="none" xmlns="http://www.w3.org/2000/svg">
<ellipse cx="62" cy="50.5" rx="62" ry="50.5" fill="black"/>
<g clip-path="url(#clip0_251_7)">
<path d="M59 49C64.4559 49 69.6883 46.8402 73.5462 42.9957C77.4041 39.1512 79.5714 33.9369 79.5714 28.5C79.5714 23.0631 77.4041 17.8488 73.5462 14.0043C69.6883 10.1598 64.4559 8 59 8C53.5441 8 48.3117 10.1598 44.4538 14.0043C40.5959 17.8488 38.4286 23.0631 38.4286 28.5C38.4286 33.9369 40.5959 39.1512 44.4538 42.9957C48.3117 46.8402 53.5441 49 59 49ZM51.6554 56.6875C35.825 56.6875 23 69.468 23 85.2434C23 87.8699 25.1375 90 27.7732 90H90.2268C92.8625 90 95 87.8699 95 85.2434C95 69.468 82.175 56.6875 66.3446 56.6875H51.6554Z" fill="#3C6E71"/>
</g>
<defs>
<clipPath id="clip0_251_7">
<rect width="72" height="82" fill="white" transform="translate(23 8)"/>
</clipPath>
</defs>
</svg>
