<svg width="124" height="101" viewBox="0 0 124 101" fill="none" xmlns="http://www.w3.org/2000/svg">
<ellipse cx="62" cy="50.5" rx="62" ry="50.5" fill="black"/>
<path d="M57.3721 22.1486C59.8578 29.6059 57.3199 37.1326 51.7053 38.9752C46.0906 40.8178 39.5199 36.2635 37.0342 28.8063C34.5484 21.349 37.0863 13.8223 42.701 11.9797C48.3156 10.1371 54.8863 14.6914 57.3721 22.1486ZM35.4523 40.5223C38.7377 46.1543 37.9381 52.7076 33.6793 55.1412C29.4205 57.5748 23.3017 54.9848 20.0338 49.3527C16.7658 43.7207 17.5306 37.1674 21.7894 34.7338C26.0482 32.3002 32.167 34.8902 35.4349 40.5223H35.4523ZM30.0289 75.7398C39.1375 51.1779 55.3209 44.9375 62.5 44.9375C69.6791 44.9375 85.8625 51.1779 94.9711 75.7398C95.5969 77.426 95.875 79.2338 95.875 81.0416V81.3197C95.875 85.8045 92.242 89.4375 87.7572 89.4375C85.7582 89.4375 83.7766 89.1941 81.8471 88.7074L66.5502 84.8832C63.8906 84.2227 61.1094 84.2227 58.4498 84.8832L43.1529 88.7074C41.2234 89.1941 39.2418 89.4375 37.2428 89.4375C32.758 89.4375 29.125 85.8045 29.125 81.3197V81.0416C29.125 79.2338 29.4031 77.426 30.0289 75.7398ZM91.3207 55.1412C87.0619 52.7076 86.2623 46.1543 89.5476 40.5223C92.833 34.8902 98.9344 32.3002 103.193 34.7338C107.452 37.1674 108.252 43.7207 104.966 49.3527C101.681 54.9848 95.5795 57.5748 91.3207 55.1412ZM71.9041 38.9752C66.2894 37.1326 63.7515 29.6059 66.2373 22.1486C68.723 14.6914 75.2937 10.1371 80.9084 11.9797C86.523 13.8223 89.0609 21.349 86.5752 28.8063C84.0894 36.2635 77.5187 40.8178 71.9041 38.9752Z" fill="#3C6E71"/>
</svg>
