<svg width="89" height="89" viewBox="0 0 89 89" fill="none" xmlns="http://www.w3.org/2000/svg">
<path d="M39.3721 16.1486C41.8578 23.6059 39.3199 31.1326 33.7053 32.9752C28.0906 34.8178 21.5199 30.2635 19.0342 22.8063C16.5484 15.349 19.0863 7.82227 24.701 5.97969C30.3156 4.13711 36.8863 8.69141 39.3721 16.1486ZM17.4523 34.5223C20.7377 40.1543 19.9381 46.7076 15.6793 49.1412C11.4205 51.5748 5.30174 48.9848 2.03377 43.3527C-1.2342 37.7207 -0.469353 31.1674 3.78944 28.7338C8.04823 26.3002 14.167 28.8902 17.4349 34.5223H17.4523ZM12.0289 69.7398C21.1375 45.1779 37.3209 38.9375 44.5 38.9375C51.6791 38.9375 67.8625 45.1779 76.9711 69.7398C77.5969 71.426 77.875 73.2338 77.875 75.0416V75.3197C77.875 79.8045 74.242 83.4375 69.7572 83.4375C67.7582 83.4375 65.7766 83.1941 63.8471 82.7074L48.5502 78.8832C45.8906 78.2227 43.1094 78.2227 40.4498 78.8832L25.1529 82.7074C23.2234 83.1941 21.2418 83.4375 19.2428 83.4375C14.758 83.4375 11.125 79.8045 11.125 75.3197V75.0416C11.125 73.2338 11.4031 71.426 12.0289 69.7398ZM73.3207 49.1412C69.0619 46.7076 68.2623 40.1543 71.5476 34.5223C74.833 28.8902 80.9344 26.3002 85.1932 28.7338C89.4519 31.1674 90.2515 37.7207 86.9662 43.3527C83.6808 48.9848 77.5795 51.5748 73.3207 49.1412ZM53.9041 32.9752C48.2894 31.1326 45.7515 23.6059 48.2373 16.1486C50.723 8.69141 57.2937 4.13711 62.9084 5.97969C68.523 7.82227 71.0609 15.349 68.5752 22.8063C66.0894 30.2635 59.5187 34.8178 53.9041 32.9752Z" fill="#3C6E71"/>
</svg>
