<svg width="124" height="101" viewBox="0 0 124 101" fill="none" xmlns="http://www.w3.org/2000/svg">
<ellipse cx="62" cy="50.5" rx="62" ry="50.5" fill="black"/>
<path d="M27.9023 56.8711L57.9014 84.8779C59.1465 86.04 60.79 86.6875 62.5 86.6875C64.21 86.6875 65.8535 86.04 67.0986 84.8779L97.0977 56.8711C102.145 52.1729 105 45.582 105 38.6924V37.7295C105 26.125 96.6162 16.2305 85.1777 14.3213C77.6074 13.0596 69.9043 15.5332 64.4922 20.9453L62.5 22.9375L60.5078 20.9453C55.0957 15.5332 47.3926 13.0596 39.8223 14.3213C28.3838 16.2305 20 26.125 20 37.7295V38.6924C20 45.582 22.8555 52.1729 27.9023 56.8711Z" fill="#3C6E71"/>
</svg>
