<svg width="72" height="82" viewBox="0 0 72 82" fill="none" xmlns="http://www.w3.org/2000/svg">
<g clip-path="url(#clip0_103_827)">
<path d="M36 41C41.4559 41 46.6883 38.8402 50.5462 34.9957C54.4041 31.1512 56.5714 25.9369 56.5714 20.5C56.5714 15.0631 54.4041 9.84881 50.5462 6.00431C46.6883 2.15982 41.4559 0 36 0C30.5441 0 25.3117 2.15982 21.4538 6.00431C17.5959 9.84881 15.4286 15.0631 15.4286 20.5C15.4286 25.9369 17.5959 31.1512 21.4538 34.9957C25.3117 38.8402 30.5441 41 36 41ZM28.6554 48.6875C12.825 48.6875 0 61.468 0 77.2434C0 79.8699 2.1375 82 4.77321 82H67.2268C69.8625 82 72 79.8699 72 77.2434C72 61.468 59.175 48.6875 43.3446 48.6875H28.6554Z" fill="#3C6E71"/>
</g>
<defs>
<clipPath id="clip0_103_827">
<rect width="72" height="82" fill="white"/>
</clipPath>
</defs>
</svg>
