<svg width="17" height="17" viewBox="0 0 17 17" fill="none" xmlns="http://www.w3.org/2000/svg">
<g clip-path="url(#clip0_92_270)">
<path d="M12.0428 0.640808L10.4358 2.24784L14.7522 6.56424L16.3592 4.95721C17.1893 4.12714 17.1893 2.78241 16.3592 1.95233L15.051 0.640808C14.2209 -0.18927 12.8762 -0.18927 12.0461 0.640808H12.0428ZM9.68537 2.99823L1.94572 10.7412C1.6004 11.0865 1.34806 11.5148 1.20861 11.983L0.0332171 15.9773C-0.0497907 16.2596 0.0265765 16.5617 0.232436 16.7676C0.438295 16.9734 0.740444 17.0498 1.01935 16.9701L5.01369 15.7947C5.48185 15.6553 5.91017 15.4029 6.25548 15.0576L14.0018 7.31464L9.68537 2.99823Z" fill="white"/>
</g>
<defs>
<clipPath id="clip0_92_270">
<rect width="17" height="17" fill="white"/>
</clipPath>
</defs>
</svg>
